<svg version="1" xmlns="http://www.w3.org/2000/svg" width="346.667" height="346.667" viewBox="0 0 260.000000 260.000000"><path d="M0 130v130h260V0H0v130zm185.3-60.2c11 4.9 18.7 15.7 16.1 22.7-1.6 4-11 5.9-15.2 2.9-2.8-1.9-5.2-6.5-5.2-9.8 0-2.1-.7-2.7-3.7-3.5-7.1-1.8-10.8-2.1-14.3-.8-8 2.8-10.8 15-5.2 23.1 1.9 2.8 2.8 3.5 3 2.3.3-1.7 2.2-2.4 2.2-.9 0 .4 1.1 1.9 2.4 3.3 1.7 1.8 4.4 3 10.2 4.2 22.8 4.9 32.4 21.7 24.5 42.7-1.1 3-3.8 7.7-5.9 10.5-9.9 13.1-29.4 17-44.4 8.8-5.8-3.1-9.3-7.3-13.8-16.3-5.7-11.3-4.2-23 3.1-23 6.2 0 8 2.7 9.4 14.3 1.3 9.8 8.7 14.5 22.2 13.9 6.8-.4 14.2-10.3 14.3-19 0-9.2-4.7-13.7-19.9-19.1-15.6-5.5-21.1-11-24.7-25-3.4-13.4.8-23.6 12-29.1 3.5-1.7 8.5-3.5 11.2-4 6.8-1.2 16.7-.4 21.7 1.8zM125 73.5c.5 1.4 1.9 8.8 3 16.4 4.1 28.2 2 61.6-4.7 76-8.5 18.1-29.4 23.2-50.5 12.5-9.6-4.8-16.8-13.6-16.8-20.2 0-3.3 3.4-8.2 5.6-8.2.7 0 5.4 3.9 10.4 8.6 12.9 12.2 18.5 14.2 27.2 9.8 6.1-3.1 10.6-10.7 13.2-22.1 2.7-11.9 2.1-41.2-1-56.7l-.6-2.9-8.6.6c-4.7.4-13.6 1.4-19.9 2.3-10.2 1.6-11.3 1.9-10.7 3.6.3 1.2-.5 2.8-2.6 4.9-2.7 2.7-3.6 3.1-6.8 2.6-5-.8-9.7-6-11.7-13.2-.9-3.1-1.5-5.9-1.2-6.1.2-.3 8.7-1.6 18.8-2.9 15.4-2.1 52.5-7 55.2-7.4.4-.1 1.2 1 1.7 2.4z"/></svg>